<svg width="515" height="150" viewBox="0 0 515 150" fill="none" xmlns="http://www.w3.org/2000/svg">
<g id="Frame 1">
<path id="Rectangle" d="M5 20C5 11.7157 11.7157 5 20 5H145V130C145 138.284 138.284 145 130 145H5V20Z" fill="#C4F3FF"/>
<path id="Bottom_X" d="M27 130.4L44.28 104.696L27.72 80H35.784L48.24 98.72L60.768 80H68.832L52.2 104.696L69.552 130.4H61.488L48.24 110.6L35.064 130.4H27Z" fill="#6894A0"/>
<path id="Bottom_O" d="M119.8 126.296L111.448 131.12H90.352L82 126.296V84.824L90.352 80H111.448L119.8 84.824V126.296ZM89.2 86.48V124.64H112.6V86.48H89.2Z" fill="#6894A0" fill-opacity="0.6"/>
<path id="Top_X" d="M80 70.4L97.28 44.696L80.72 20H88.784L101.24 38.72L113.768 20H121.832L105.2 44.696L122.552 70.4H114.488L101.24 50.6L88.064 70.4H80Z" fill="#6894A0"/>
<path id="Top_O" d="M66.8 65.296L58.448 70.12H37.352L29 65.296V23.824L37.352 19H58.448L66.8 23.824V65.296ZM36.2 25.48V63.64H59.6V25.48H36.2Z" fill="#6894A0" fill-opacity="0.6"/>
<path id="TicTacToe" d="M188.055 48.8125V100H176.629V48.8125H188.055ZM203.629 48.8125V57.707H161.371V48.8125H203.629ZM220.293 61.9609V100H209.289V61.9609H220.293ZM208.621 52.1172C208.621 50.5234 209.184 49.2227 210.309 48.2148C211.434 47.1836 212.91 46.668 214.738 46.668C216.566 46.668 218.043 47.1836 219.168 48.2148C220.316 49.2227 220.891 50.5234 220.891 52.1172C220.891 53.6875 220.316 54.9883 219.168 56.0195C218.043 57.0273 216.566 57.5312 214.738 57.5312C212.91 57.5312 211.434 57.0273 210.309 56.0195C209.184 54.9883 208.621 53.6875 208.621 52.1172ZM244.094 92.1602C245.266 92.1602 246.285 91.9375 247.152 91.4922C248.02 91.0469 248.688 90.4258 249.156 89.6289C249.648 88.8086 249.895 87.8242 249.895 86.6758H260.23C260.23 89.4414 259.516 91.8789 258.086 93.9883C256.68 96.0977 254.781 97.75 252.391 98.9453C250 100.117 247.305 100.703 244.305 100.703C241.352 100.703 238.773 100.223 236.57 99.2617C234.367 98.2773 232.527 96.9062 231.051 95.1484C229.574 93.3906 228.461 91.3516 227.711 89.0312C226.984 86.6875 226.621 84.1562 226.621 81.4375V80.5234C226.621 77.8281 226.984 75.3086 227.711 72.9648C228.461 70.6211 229.574 68.5703 231.051 66.8125C232.527 65.0547 234.355 63.6953 236.535 62.7344C238.738 61.75 241.316 61.2578 244.27 61.2578C247.387 61.2578 250.141 61.8555 252.531 63.0508C254.945 64.2461 256.832 65.9688 258.191 68.2188C259.551 70.4453 260.23 73.1289 260.23 76.2695H249.895C249.895 75.0508 249.672 73.9609 249.227 73C248.805 72.0156 248.148 71.2422 247.258 70.6797C246.391 70.0938 245.312 69.8008 244.023 69.8008C242.688 69.8008 241.586 70.0938 240.719 70.6797C239.875 71.2422 239.23 72.0273 238.785 73.0352C238.34 74.043 238.035 75.1914 237.871 76.4805C237.707 77.7461 237.625 79.0938 237.625 80.5234V81.4375C237.625 82.8906 237.707 84.2734 237.871 85.5859C238.035 86.875 238.34 88.0117 238.785 88.9961C239.254 89.9805 239.91 90.7539 240.754 91.3164C241.598 91.8789 242.711 92.1602 244.094 92.1602ZM285.684 48.8125V100H281.395V48.8125H285.684ZM303.227 48.8125V52.5391H263.887V48.8125H303.227ZM329.699 93.1797V73.5625C329.699 71.7578 329.324 70.1992 328.574 68.8867C327.824 67.5742 326.723 66.5664 325.27 65.8633C323.816 65.1602 322.023 64.8086 319.891 64.8086C317.922 64.8086 316.164 65.1602 314.617 65.8633C313.094 66.543 311.887 67.4688 310.996 68.6406C310.129 69.7891 309.695 71.0664 309.695 72.4727L305.477 72.4375C305.477 71.0078 305.828 69.625 306.531 68.2891C307.234 66.9531 308.23 65.7578 309.52 64.7031C310.809 63.6484 312.344 62.8164 314.125 62.207C315.93 61.5742 317.91 61.2578 320.066 61.2578C322.785 61.2578 325.176 61.7148 327.238 62.6289C329.324 63.543 330.953 64.9141 332.125 66.7422C333.297 68.5703 333.883 70.8672 333.883 73.6328V92.0195C333.883 93.332 333.977 94.6914 334.164 96.0977C334.375 97.5039 334.668 98.6641 335.043 99.5781V100H330.578C330.297 99.1562 330.074 98.1016 329.91 96.8359C329.77 95.5469 329.699 94.3281 329.699 93.1797ZM330.684 77.8516L330.754 81.0859H322.492C320.336 81.0859 318.402 81.2852 316.691 81.6836C315.004 82.0586 313.574 82.6211 312.402 83.3711C311.23 84.0977 310.328 84.9766 309.695 86.0078C309.086 87.0391 308.781 88.2109 308.781 89.5234C308.781 90.8828 309.121 92.125 309.801 93.25C310.504 94.375 311.488 95.2773 312.754 95.957C314.043 96.6133 315.566 96.9414 317.324 96.9414C319.668 96.9414 321.73 96.5078 323.512 95.6406C325.316 94.7734 326.805 93.6367 327.977 92.2305C329.148 90.8242 329.934 89.2891 330.332 87.625L332.16 90.0508C331.855 91.2227 331.293 92.4297 330.473 93.6719C329.676 94.8906 328.633 96.0391 327.344 97.1172C326.055 98.1719 324.531 99.0391 322.773 99.7188C321.039 100.375 319.07 100.703 316.867 100.703C314.383 100.703 312.215 100.234 310.363 99.2969C308.535 98.3594 307.105 97.082 306.074 95.4648C305.066 93.8242 304.562 91.9727 304.562 89.9102C304.562 88.0352 304.961 86.3594 305.758 84.8828C306.555 83.3828 307.703 82.1172 309.203 81.0859C310.727 80.0312 312.555 79.2344 314.688 78.6953C316.844 78.1328 319.258 77.8516 321.93 77.8516H330.684ZM359.195 97.082C360.977 97.082 362.641 96.7539 364.188 96.0977C365.758 95.418 367.047 94.4219 368.055 93.1094C369.086 91.7734 369.672 90.1445 369.812 88.2227H373.82C373.703 90.6367 372.965 92.793 371.605 94.6914C370.27 96.5664 368.512 98.043 366.332 99.1211C364.176 100.176 361.797 100.703 359.195 100.703C356.547 100.703 354.203 100.223 352.164 99.2617C350.148 98.3008 348.461 96.9648 347.102 95.2539C345.742 93.5195 344.711 91.5039 344.008 89.207C343.328 86.8867 342.988 84.3906 342.988 81.7188V80.2422C342.988 77.5703 343.328 75.0859 344.008 72.7891C344.711 70.4688 345.742 68.4531 347.102 66.7422C348.461 65.0078 350.148 63.6602 352.164 62.6992C354.18 61.7383 356.512 61.2578 359.16 61.2578C361.879 61.2578 364.316 61.8086 366.473 62.9102C368.652 64.0117 370.387 65.5703 371.676 67.5859C372.988 69.6016 373.703 71.9922 373.82 74.7578H369.812C369.695 72.7188 369.156 70.9609 368.195 69.4844C367.234 68.0078 365.969 66.8711 364.398 66.0742C362.828 65.2773 361.082 64.8789 359.16 64.8789C357.004 64.8789 355.164 65.3008 353.641 66.1445C352.117 66.9648 350.875 68.1016 349.914 69.5547C348.977 70.9844 348.285 72.625 347.84 74.4766C347.395 76.3047 347.172 78.2266 347.172 80.2422V81.7188C347.172 83.7578 347.383 85.7031 347.805 87.5547C348.25 89.3828 348.941 91.0117 349.879 92.4414C350.84 93.8711 352.082 95.0078 353.605 95.8516C355.152 96.6719 357.016 97.082 359.195 97.082ZM399.238 48.8125V100H397.34V48.8125H399.238ZM417.871 48.8125V50.7109H378.707V48.8125H417.871ZM419.453 81.7188V80.2422C419.453 77.4531 419.852 74.8984 420.648 72.5781C421.469 70.2578 422.605 68.2539 424.059 66.5664C425.535 64.8789 427.293 63.5781 429.332 62.6641C431.371 61.7266 433.621 61.2578 436.082 61.2578C438.566 61.2578 440.828 61.7266 442.867 62.6641C444.906 63.5781 446.664 64.8789 448.141 66.5664C449.617 68.2539 450.754 70.2578 451.551 72.5781C452.348 74.8984 452.746 77.4531 452.746 80.2422V81.7188C452.746 84.5078 452.348 87.0625 451.551 89.3828C450.754 91.7031 449.617 93.707 448.141 95.3945C446.688 97.082 444.941 98.3945 442.902 99.332C440.863 100.246 438.613 100.703 436.152 100.703C433.668 100.703 431.406 100.246 429.367 99.332C427.328 98.3945 425.57 97.082 424.094 95.3945C422.617 93.707 421.469 91.7031 420.648 89.3828C419.852 87.0625 419.453 84.5078 419.453 81.7188ZM421.352 80.2422V81.7188C421.352 83.9922 421.68 86.1602 422.336 88.2227C423.016 90.2617 423.988 92.0781 425.254 93.6719C426.52 95.2656 428.066 96.5195 429.895 97.4336C431.723 98.3477 433.809 98.8047 436.152 98.8047C438.473 98.8047 440.535 98.3477 442.34 97.4336C444.168 96.5195 445.715 95.2656 446.98 93.6719C448.246 92.0781 449.207 90.2617 449.863 88.2227C450.52 86.1602 450.848 83.9922 450.848 81.7188V80.2422C450.848 78.0156 450.52 75.8828 449.863 73.8438C449.207 71.8047 448.234 69.9883 446.945 68.3945C445.68 66.7773 444.133 65.5 442.305 64.5625C440.477 63.625 438.402 63.1562 436.082 63.1562C433.762 63.1562 431.688 63.625 429.859 64.5625C428.055 65.5 426.508 66.7773 425.219 68.3945C423.953 69.9883 422.992 71.8047 422.336 73.8438C421.68 75.8828 421.352 78.0156 421.352 80.2422ZM475.668 100.703C473.348 100.703 471.18 100.246 469.164 99.332C467.148 98.3945 465.379 97.082 463.855 95.3945C462.332 93.707 461.137 91.7148 460.27 89.418C459.426 87.0977 459.004 84.5547 459.004 81.7891V80.2422C459.004 77.4531 459.414 74.9102 460.234 72.6133C461.078 70.293 462.227 68.2891 463.68 66.6016C465.156 64.8906 466.855 63.5781 468.777 62.6641C470.699 61.7266 472.762 61.2578 474.965 61.2578C477.074 61.2578 479.008 61.6562 480.766 62.4531C482.523 63.2266 484.047 64.3281 485.336 65.7578C486.648 67.1875 487.656 68.8984 488.359 70.8906C489.062 72.8828 489.414 75.0859 489.414 77.5V79.7148H460.234V77.8164H487.516V77.3594C487.516 74.8047 487 72.4609 485.969 70.3281C484.938 68.1719 483.484 66.4375 481.609 65.125C479.734 63.8125 477.52 63.1562 474.965 63.1562C472.855 63.1562 470.934 63.6016 469.199 64.4922C467.488 65.3828 466.012 66.6133 464.77 68.1836C463.527 69.7305 462.566 71.5352 461.887 73.5977C461.23 75.6602 460.902 77.875 460.902 80.2422V81.7891C460.902 84.1562 461.277 86.3711 462.027 88.4336C462.777 90.4961 463.82 92.3125 465.156 93.8828C466.492 95.4297 468.051 96.6484 469.832 97.5391C471.637 98.4062 473.582 98.8398 475.668 98.8398C477.848 98.8398 479.875 98.4766 481.75 97.75C483.648 97.0234 485.383 95.6406 486.953 93.6016L488.289 94.5508C487.445 95.7461 486.426 96.8125 485.23 97.75C484.059 98.6641 482.676 99.3906 481.082 99.9297C479.512 100.445 477.707 100.703 475.668 100.703Z" fill="#6894A0"/>
<rect x="0.5" y="0.5" width="514" height="149" />
</g>
</svg>
